<svg width="32" height="32" viewBox="0 0 32 32" fill="none" xmlns="http://www.w3.org/2000/svg">
  <rect width="32" height="32" rx="8" fill="url(#gradient)"/>
  <path d="M8 12C8 10.8954 8.89543 10 10 10H14C15.1046 10 16 10.8954 16 12V20C16 21.1046 15.1046 22 14 22H10C8.89543 22 8 21.1046 8 20V12Z" fill="white"/>
  <path d="M18 8C18 6.89543 18.8954 6 20 6H22C23.1046 6 24 6.89543 24 8V24C24 25.1046 23.1046 26 22 26H20C18.8954 26 18 25.1046 18 24V8Z" fill="white"/>
  <circle cx="12" cy="16" r="2" fill="#0ea5e9"/>
  <circle cx="21" cy="16" r="2" fill="#0ea5e9"/>
  <defs>
    <linearGradient id="gradient" x1="0" y1="0" x2="32" y2="32" gradientUnits="userSpaceOnUse">
      <stop stop-color="#0ea5e9"/>
      <stop offset="1" stop-color="#0284c7"/>
    </linearGradient>
  </defs>
</svg>
